<svg xmlns="http://www.w3.org/2000/svg" xmlns:xlink="http://www.w3.org/1999/xlink" viewBox="0 0 1680.2 316.8"><defs><style>.a{fill:none;}.b{fill:#d10214;}.c{fill:#fff;}.d{fill:#191917;}.e{clip-path:url(#a);}.f{fill:#0e2050;}.g{fill:#951b80;}.h{fill:#e40613;}.i{fill:#01509f;}.j{fill:#f28800;}.k{fill:#1d1d1b;}.l{fill:#0090d7;}.m{fill:#feed01;}.n{fill:#00963f;}.o{fill:#3d195b;}.p,.q,.r,.s,.t,.u{fill-rule:evenodd;}.p{fill:url(#b);}.q{fill:url(#c);}.r{fill:url(#d);}.s{fill:url(#e);}.t{fill:url(#f);}.u{fill:url(#g);}.v{fill:#008fd7;}.w{fill:#009246;}.x{fill:#e3e3e2;}.y{fill:#ce2b37;}.z{fill:#002d71;}.aa{fill:#12233f;}</style><clipPath id="a"><rect class="a" y="0.8" width="328.8" height="316"/></clipPath><linearGradient id="b" x1="1187.87" y1="163.36" x2="1283.68" y2="218.67" gradientUnits="userSpaceOnUse"><stop offset="0" stop-color="#147ad1"/><stop offset="1" stop-color="#002d71"/></linearGradient><linearGradient id="c" x1="1359.38" y1="160.69" x2="1269.38" y2="223.71" xlink:href="#b"/><linearGradient id="d" x1="1255.92" y1="204.04" x2="1311.48" y2="171.96" xlink:href="#b"/><linearGradient id="e" x1="1293.26" y1="148.88" x2="1245.41" y2="115.38" xlink:href="#b"/><linearGradient id="f" x1="1265.2" y1="113.22" x2="1334.12" y2="182.14" xlink:href="#b"/><linearGradient id="g" x1="1313.67" y1="176.71" x2="1261.87" y2="212.98" xlink:href="#b"/></defs><title>Asset 1</title><path class="b" d="M355.3,251.5H666.8V2.3H355.3Z"/><path class="c" d="M632.2,90.8a17.3,17.3,0,1,0,17.3,17.3,17.3,17.3,0,0,0-17.3-17.3m-20.1,42.7c.1.6-.4,1-1.6,1.8l-.6.4.2.5c.2.2-.1.7-.6.9l-1,.5c-.5.3-1,.2-1.1-.1l-.2-.4-1.3.7.2.4c.1.3-.2.7-.6.9l-1.1.5c-.5.2-1,.2-1.1-.1l-.2-.4-13.1,6,.3.6c.1.3-.2.7-.6.9l-1.1.5a1,1,0,0,1-1.1-.1l-.2-.6-1.5.7.2.6c.2.3-.1.7-.6,1l-1,.4c-.5.2-1,.2-1.1-.1l-.3-.6c-2.1.9-4.4,1.2-6-1.9-.7-1.4-.8-4.8-1.3-6.5a1.7,1.7,0,0,0-1.4-1.1c-20.3-3.9-27.1.4-40.2-2.8-4-1-6.3-4.8-11.3-4.8-11-.3-14.2-.2-26.1-.6l-.6,2.1-41.9-.2,6.4,3.1,2.1,18.5-2.2.6c.4,3.7.8,8.6,1,13.1s.4,8.2.3,10.9a9.9,9.9,0,0,1-1.2,5,10.2,10.2,0,0,1-3.1,3.4c-.4.3-2,1.4-3.9,2.5l-5.2,2.8c.1.5.5,1,.6,1.4-25.5,12.3-57.1,16.6-67.3,36.1-1.2,2.3-5.3,1.1-5.4-1.3a26.7,26.7,0,0,1,0-4h-.4c-.3,0-.6-.5-.5-1v-1.1c0-.6.3-1,.6-1h.5a18.6,18.6,0,0,1,.6-3.4h-.4c-.3-.1-.4-.6-.2-1.1l.4-1.1c.2-.5.5-.8.9-.7h.4c1.8-4.2,5.3-6.1,6.9-10.1h-.2c-.4-.1-.5-.6-.3-1.1l.4-1.1c.2-.5.6-.8.9-.7h.3a14.2,14.2,0,0,1,.8-1.8l-.3-.3a.8.8,0,0,1,0-1.1l.6-1c.3-.4.7-.6,1-.4h.5l.5-.5a4.7,4.7,0,0,1,5.4-.1c1.6,1,7.9,4.5,13.9-.9,9.9-8.9,21.5-21,30.3-21.4-2.4-5.1-6.5-15.8-7-19.8l-2.9-.6c-1.6-3.3-5.3-18.4-6.3-29.8,0,0-1.3-12.3-.1-16.7-.7,0-1.9,1-2.2,1-1.6-3.9,3.6-37.1,8.7-46.7l7.9-3.1c-.8-.2-6.5-.4-21.5-1.6-8.3,7.3-18,15.3-22.9,19.7-.8.6-2.2,5.3-2.2,5.3s-2.5,2.2-4.8,3.8-10.5,3.8-12,1.2c-.4-.6-.4-.9,0-1.2s5.5-3.3,6.9-6c-2.3,1.2-5,2.4-7,2.2s-1.4-2.3-.2-2.7c3.1-1.3,5.6-1.9,7.5-4.5s3.9-4.2,6.8-4.2c0,0,13.9-18.2,22.1-26.8,2.3-2.4,6.5-1.6,6.5-1.6l.7-2.8s28.1-3.3,41.2,1c-.3-8,3.3-18.5,15.7-18.5,6.4,0,15.8,5.6,17.1,12.5.4,2.1-.8,3.5-1.5,6.2s.5,8.5,0,9.9-1.7,1.1-2.8,2.7a36,36,0,0,0-2.6,4.9l-1.7,3.8-8.8-.7c-3.2,6.9-9.8,21.1-12.1,35,6.9.6,38.1,5.1,38.1,5.1l.8,2.6s13.2,1.6,23.9,6.7c2.4.5,8.5-.4,12.4,1.5l1.2-1c14,4.3,25.6,11.6,39.2,14.9l8.4,2a78.4,78.4,0,0,0,10.9,1.4c4.3.3,6.7.2,9.9.4s5-.2,5.9,3.1"/><path class="d" d="M650.6,285.5l-4.9,15.2h9.7Zm6.5,21.2H643.9l-2.3,7h-8.4l12-33.5h10.7l11.9,33.5h-8.4Zm-27.3-12.3v18.2a36.7,36.7,0,0,1-11.6,1.8c-11.7,0-17.2-5.2-17.2-17.4s5.5-17.4,17.2-17.4a30.5,30.5,0,0,1,11,1.9V288a33.4,33.4,0,0,0-10.4-1.8c-7,0-9.2,2.9-9.2,10.8s2.3,11,8.9,11a31.5,31.5,0,0,0,4.4-.3v-7.5h-6.2v-5.8Zm-43.1-14.2h8.4v33.5h-8.4Zm-27.9,0h8.3v27.2h14.4v6.3H558.8Zm-30.6,32.2v-6.5a32.7,32.7,0,0,0,11.2,1.8c3.8,0,5.5-1,5.5-3.6s-.7-2.9-3.8-3.5l-5.6-1.2c-5.8-1.2-7.7-3.5-7.7-9.3,0-7.3,4.3-10.5,13-10.5a31.5,31.5,0,0,1,10.7,1.8V288a31.8,31.8,0,0,0-10.2-1.8c-4.1,0-5.5,1.1-5.5,3.7s1,2.8,3.7,3.4l5.4,1.1c6.3,1.4,8,3.5,8,9.5s-4.4,10.5-13.4,10.5a32.4,32.4,0,0,1-11.3-2m-28.7-32.2h23.4v6.5H507.8v7h12.6V300H507.8v7.4h15.4v6.3H499.5Zm-21.2,27.2c4.9,0,6.5-2.6,6.5-10.4s-1.6-10.3-6.5-10.3H472v20.7Zm-14.7-27.2h15c11.7,0,14.7,4.9,14.7,16.8s-3.3,16.7-14.7,16.7h-15Zm-6.9,0v33.5H446.5l-14.2-24.2v24.2h-7.8V280.2h10.2l14.2,24.3V280.2Zm-68.3,22.6V280.2h8.3v22.4c0,3.7,1.7,5.1,6.3,5.1s6.1-1.4,6.1-5.1V280.2h8.4v22.6c0,7.9-4.5,11.6-14.5,11.6s-14.6-3.7-14.6-11.6m-13.6,1c0-3.1-1.2-4.4-4.1-4.4h-7.5v8.7h7.5c3,0,4.1-1.3,4.1-4.3m-11.6-9.6h7c2.8,0,4.1-1.2,4.1-4.1s-1.2-4.2-4.1-4.2h-7Zm19.7,10.4c0,6-2.8,9.1-10.3,9.1H355.3V280.2h16.6c7.8,0,10.5,3.1,10.5,8.8s-1.6,6.3-6.2,7.4l-.9.3h.8c5.2,1.2,6.8,3.1,6.8,7.8"/><g class="e"><path class="f" d="M162.7,174.1a79.8,79.8,0,0,1,57.6,24.2l2.2-2.2a83.6,83.6,0,0,0-60-25.3,82,82,0,0,0-59.6,25.3l2.2,2.2a80.5,80.5,0,0,1,57.6-24.2m0,34.2a46.3,46.3,0,0,1,34.8,15.9L200,222a49.6,49.6,0,0,0-37.3-17,48.4,48.4,0,0,0-37.2,17l2.5,2.2a46.1,46.1,0,0,1,34.7-15.9m45.4-14.4a1.4,1.4,0,0,0-2.3,0l-18.3,11.9,3.9,2.3,13.1-8.7-2,7.3-1.7-1.4-3.6,2.2,4.2,3.1-1.1,4.1,3.3,3.1,6.1-20.9a1.8,1.8,0,0,0-.5-2.2ZM128,208.3a4.6,4.6,0,0,0,1.9-3.3c.3-1.4-.3-2.5-1.7-4.2l-7.2-8.9,3.3-2.5,8.1,9.8a9.1,9.1,0,0,1,2.2,6.4c-.2,2.5-1.4,4.4-3.6,6.4s-4.4,2.5-6.9,2.2a9.3,9.3,0,0,1-5.9-3.3l-8-9.8,3.3-2.5,7.2,8.9c1.4,1.7,2.3,2.5,3.9,2.5a11.9,11.9,0,0,0,3.4-1.7m17.5-23,.8,4.7,9.5-2,.8,3.9-9.4,2,.2,1.7c.6,2.2,1.4,2.5,3.4,2.2l7.5-1.7.8,3.9-7.8,1.7c-3.6.8-6.9-.3-7.8-4.8l-2.7-13.3a1.5,1.5,0,0,1,1.1-2l12.8-2.5.8,3.9Zm27.8,16.1-2.5-.6a1.4,1.4,0,0,1-1.1-1.9l3.3-13.1c1.1-4.4,4.5-5.3,8.1-4.4l7.8,1.9-.9,3.9-7.5-1.9c-1.9-.6-2.7-.3-3.3,1.9l-.6,2,9.5,2.5-1.1,3.9-9.5-2.6Zm78.4,110.4h1.2c.5,0,1.3,0,1.3-.8s-.5-.8-1.1-.8H252v1.6Zm0,.6h0v2.2h-.8v-5.3h2c1.3,0,1.9.6,1.9,1.4a1.4,1.4,0,0,1-1.4,1.4l1.4,2.5H254l-1.4-2.2Zm-3-.3h0a3.9,3.9,0,1,0,3.9-3.9,3.8,3.8,0,0,0-3.9,3.9m3.9,4.7h0a4.7,4.7,0,1,1,0-9.4,4.7,4.7,0,0,1,0,9.4m-25.3-33.6h0v20.3a1.5,1.5,0,0,1-1.7,1.7v1.1h20.6a43.2,43.2,0,0,1,.5-7.5h-1.4c-.5,3.3-1.3,3.8-3.3,3.8h-8.9v-8.3h5.3c1.7,0,1.9.6,2.2,2h1.1c0-.9-.2-2.8-.2-3.7a20.6,20.6,0,0,1,.2-3.6h-1.1c-.3,1.4-.5,2-2.2,2h-5.3v-7.5h8.4c2.2,0,2.7.8,3,2.7h1.1a41.6,41.6,0,0,1-.3-6.1H225.6v1.1c1.1.6,1.7,1.1,1.7,2m-31.5,0h0v14.4c0,6.7,3.6,8.9,10.9,8.9s10.8-2.2,10.8-9.4V283.2a1.5,1.5,0,0,1,1.7-1.7v-1.1c-1.4,0-2.8.3-4.5.3a28.6,28.6,0,0,1-5.2-.3v1.1c1.6,0,2.2.3,2.2,2v14.4c0,4.5-2,5.3-5,5.3s-5-.8-5-5.3V283.5c0-1.4.5-2,2.2-2v-1.1c-1.7,0-3.1.3-5.3.3a18.9,18.9,0,0,1-4.4-.3v1.1c1.1,0,1.6.6,1.6,1.7m-15.5,13.9h0v2.8c0,1.6-1.4,3-4.2,3-4.5,0-7.3-5.5-7.3-10.3s2.8-9.1,8.1-9.1c3.4,0,6.4,1.6,7,5.2H185a57.4,57.4,0,0,1-.3-6.6,14.6,14.6,0,0,0-7.8-2c-8.3,0-14.2,5-14.2,13.6,0,7,4.8,13.1,12,13.1a11.2,11.2,0,0,0,7.8-3l.8,2.5h2.2v-8.7c0-1.6.9-2.2,2-2.2v-1.1c-1.7,0-3.4.3-5.3.3a23.2,23.2,0,0,1-4.7-.3v1.4c2.2-.3,2.8-.3,2.8,1.4m-31.5-2h-5.5a71.4,71.4,0,0,0,3-8.9h0c1.1,3.9,1.7,6.2,2.5,8.9m-15,10.1h0v1.1c1.4,0,2.8-.3,4.2-.3a15.8,15.8,0,0,1,3.9.3v-1.1c-1.4,0-2-.6-2-1.2a3.1,3.1,0,0,1,.3-1.4l1.7-4.4h7.5l1.1,3.9a4.2,4.2,0,0,1,.3,1.9c0,.9-.6,1.2-2,1.4v1.1l5-.2a41,41,0,0,1,5,.2v-1.1c-1.1-.2-1.6-.8-2.2-2.5l-7.2-22.2-3.6.3a15.4,15.4,0,0,1-3.7-.3v1.1c1.2,0,1.4.5,1.4,1.1a3.9,3.9,0,0,1-.5,1.4l-7.5,19.2c0,.8-.6,1.4-1.7,1.7m-23.9-22h0v20.3a1.5,1.5,0,0,1-1.7,1.7v1.1h20.6a43.2,43.2,0,0,1,.5-7.5H128c-.6,3.3-1.4,3.8-3.4,3.8h-8.9v-8H121c1.7,0,2,.5,2.2,1.9h1.1c0-.8-.2-2.8-.2-3.6a20,20,0,0,1,.2-3.6h-1.1c-.2,1.4-.5,1.9-2.2,1.9h-5.3v-7.5h8.4c2.2,0,2.7.9,3,2.8h1.1c-.2-2.2-.2-3.9-.2-6.1H108.2v1.1c1.4.3,1.7.8,1.7,1.7m-24.8,0h0v20.3c0,1.1-.5,1.7-1.6,1.7v1.1h19.4a63.9,63.9,0,0,1,.9-7.5h-1.4c-.6,3-1.7,4.1-4.2,4.1H91V283.7c0-1.1.2-1.9,2.2-2.2v-1.1l-5,.3a25.8,25.8,0,0,1-4.7-.3v1.1c1.1,0,1.6.6,1.6,1.7M30.6,263.1h0l.6-6.4a18.6,18.6,0,0,1-10.6,4.2c-7.2,0-12.5-7.2-12.5-13.6,0-8.4,5-13.4,11.1-13.4s8.1,2.5,8.9,7.3h1.4c-.3-3.6-.6-7.3-.6-11.2a27.5,27.5,0,0,0-9.1-1.3C6.7,228.7,0,238.1,0,247.8s6.7,19,18.9,19a21.9,21.9,0,0,0,11.7-3.7m89-23.3h0l-1.1,21.1c0,2.2-.8,2.5-2.8,2.8v1.4a30.3,30.3,0,0,1,5.3-.3c2,0,3.9.3,5.8.3v-1.4c-3-.3-3.3-.8-3.3-3.3a38.6,38.6,0,0,1,.3-5.3l.3-14.8h0l9.7,25.1H138l8.3-24.8h0l1.1,15a33.2,33.2,0,0,1,.3,5.3c0,2.2-.5,2.8-3.1,3.1v1.4a44.3,44.3,0,0,1,6.4-.3c2.3,0,4.5.3,6.7.3V264c-1.1-.3-2.5-.3-2.5-1.7l-1.7-21.7a49.7,49.7,0,0,1-.2-5.3c0-1.4.2-1.9,1.9-1.9v-1.7a31.4,31.4,0,0,1-5.3.3l-5.3-.3-7.7,23.4-8.7-23.4a33.8,33.8,0,0,1-5.5.3c-2,0-3.6-.3-5.3-.3v1.4c1.9.3,2.2.6,2.2,2a24.4,24.4,0,0,1,0,4.7m-43.1,25h0v-1.4a3,3,0,0,0,2.5-2.2l10-25a7.1,7.1,0,0,0,.6-2c0-.5-.6-1.4-2-1.4v-1.1a25.8,25.8,0,0,0,4.8.3c1.6,0,3-.3,4.7-.3l9.2,28.7c.8,2.2,1.4,2.7,3,3.3v1.4a45.7,45.7,0,0,0-6.4-.3c-2.2,0-4.4.3-6.4.3v-1.4c2-.3,2.5-.8,2.5-1.9a5.8,5.8,0,0,0-.5-2.5l-1.7-5.1H87.1l-2.3,5.9a6.6,6.6,0,0,0-.2,1.7c0,.8.8,1.3,2.5,1.6v1.4a31.4,31.4,0,0,0-5.3-.3c-2,0-3.6.3-5.3.3m12-14.4h7.2a99.1,99.1,0,0,1-3.1-11.7h0a121.8,121.8,0,0,1-4.1,11.7M40.3,235.1h0v26.4c0,1.4-.5,1.9-2.2,2.2v1.4a43.6,43.6,0,0,1,6.1-.3c2,0,3.9.3,6.1.3v-1.4a1.9,1.9,0,0,1-2.2-2.2V249.8H60.4v11.7c0,1.4-.6,1.9-2.3,2.2v1.4a45,45,0,0,1,6.2-.3c1.9,0,3.9.3,6.1.3v-1.4c-1.7,0-2.2-.8-2.2-2.2V235.1c0-1.4.5-2,2.2-2.3v-1.1a43.6,43.6,0,0,1-6.1.3c-2,0-3.9-.3-6.2-.3v1.4c1.7,0,2.3.8,2.3,2.2v10H48.1v-10c0-1.4.6-1.9,2.2-2.2v-1.4a42.9,42.9,0,0,1-6.1.3c-1.9,0-3.9-.3-6.1-.3v1.4c1.7,0,2.2.6,2.2,2m262.6,18.3h-1.4c.3,3.1.3,6.7.3,10.6a39.5,39.5,0,0,0,11.4,1.9c8.4,0,15.3-3.6,15.3-10.5s-5-8.7-10-10.3l-5.6-1.7c-2.2-.6-4.7-1.4-4.7-4.5s4.5-4.4,7-4.4c4.7,0,8.6,2.2,9.7,7h1.4a95.5,95.5,0,0,1-.3-9.8,28.7,28.7,0,0,0-9.7-1.7c-7.8,0-15.6,2.5-15.6,10.6,0,6.1,5.3,8.4,10.6,10l3.6,1.1c2.5.9,5.6,1.7,5.6,4.8s-4.5,4.7-7.6,4.7c-5.2.6-8.9-2.2-10-7.8m-39.2-18.3h0v26.4c0,1.4-.6,1.9-2.2,2.2v1.4a27.4,27.4,0,0,1,5-.3c1.7,0,3,.3,4.7.3v-1.4c-1.4,0-3-.3-3-2.8v-22h0l16.6,26.2h5.3v-30c0-1.4.6-2,2.3-2.3v-1.1a29.1,29.1,0,0,1-5.1.3c-1.6,0-3-.3-4.7-.3v1.4c1.4,0,3.1.3,3.1,2.8v18.3h0l-13.9-22.5a24.3,24.3,0,0,1-4.5.3c-1.9,0-3.9-.3-6.1-.3v1.4c1.9,0,2.5.6,2.5,2m-60.9,0h0v26.4c0,1.4-.6,1.9-2.2,2.2v1.4a42.9,42.9,0,0,1,6.1-.3c1.9,0,3.9.3,6.1.3v-1.4c-1.7,0-2.2-.8-2.2-2.2V235.1c0-1.4.5-2,2.2-2.3v-1.1a43.6,43.6,0,0,1-6.1.3c-2,0-3.9-.3-6.1-.3v1.4c1.6,0,2.2.6,2.2,2m-27.6,25.5h0V236.7l3.1-.3c4.5,0,7.2,1.7,7.2,6.2s-1.9,7.2-7.2,7.2c-.6,0-1.4-.3-1.7-.3s-.8,0-.8.6,3.6,2.2,6.1,2.2c6.4,0,11.1-3.9,11.1-10S189.7,232,180.3,232H165.2v1.4c1.7,0,2.3.8,2.3,2.2v24.8c0,2.5-.3,3.3-2.3,3.6v1.4a45,45,0,0,1,6.2-.3c1.9,0,3.8.3,6.9.3V264c-2.8-.9-3.1-1.4-3.1-3.4m61-24.4h0c7.5,0,9.7,8.6,9.7,14.4s-3.1,10-8.1,10c-7.2,0-9.7-8.6-9.7-14.4,0-4.2,1.9-10,8.1-10m.5,29.2h0c9.2,0,16.7-6.4,16.7-17,0-8.9-6.1-17.2-16.4-17.2a16,16,0,0,0-16.4,16.4c0,9.4,6.1,17.8,16.1,17.8M197.8,138a38.1,38.1,0,0,0,.3-13.9,106.1,106.1,0,0,1-13.4,15.5,103.9,103.9,0,0,1-20-.8,53.1,53.1,0,0,0,10.8,8.1c-7.8,4.7-12.8,5.3-12.8,5.3,33.7.8,53.7-21.2,53.7-21.2a69.4,69.4,0,0,1-18.6,7m-33.1.5a152.6,152.6,0,0,1-16.7-8.3,209,209,0,0,1,3-22.8A93.8,93.8,0,0,1,133.2,121c-5.8-4.2-11.9-8.9-18-14.2a97,97,0,0,0,8.6,18.9c-5.3,2-10.9,2.8-15.9,1.7,0,0,5.9,7.5,24.2,10.6,5,6.1,11.2,10.8,18.4,12.8,0,0-2.2-2.5-2.8-11.4,5.3,0,10.9-.3,17-.9M124.3,71.8a105.5,105.5,0,0,0-19.4,1.9,146.3,146.3,0,0,1-1.7-15,68.8,68.8,0,0,0-8.3,17.5c-5.6,2.2-7.3,4.2-7.3,4.2.9,3.1,2.8,5.8,5,8.6-.8,13.1,3.6,21.7,3.6,21.7a43.1,43.1,0,0,1,5.3-13.3,100.9,100.9,0,0,0,13.9,9.1c-3.3-5.8-5.5-12.2-7.5-18.6a112.9,112.9,0,0,1,16.4-16.1M105.4,40.3a132.4,132.4,0,0,1,14.5-11.9A50.7,50.7,0,0,0,109,29.8a60.1,60.1,0,0,1,7.8-13.9S93.2,32.5,88.7,62.6c0,0,2-5.3,8.7-13.6a53.2,53.2,0,0,0,5.8,9.7,71.9,71.9,0,0,1,2.2-18.4m78.2-24.7a108.9,108.9,0,0,0-17.8-7,38.1,38.1,0,0,1,13.6-7.5,73.6,73.6,0,0,0-29.2,5c-12.2-1.1-20,1.1-20,1.1,1.9,1.4,3.3,3.9,5,6.7a65.7,65.7,0,0,0-15.6,14.5,124.1,124.1,0,0,1,19.2-7.3L141,25a71.8,71.8,0,0,0,8.9,11.4,55.8,55.8,0,0,1,7.8-19.2,187.4,187.4,0,0,1,25.9-1.6m52,35a54,54,0,0,0-15.3-20c-5.3-10.9-11.1-15.9-11.1-15.9.5,2.5,0,5.3-.9,8.4a70.3,70.3,0,0,0-24.7-7.5,96.6,96.6,0,0,1,19.7,17.2,104.1,104.1,0,0,1-12.2,15.9c9.2-2,16.4-3.1,22.3-3.1a177.7,177.7,0,0,1,13.9,22.8,89.8,89.8,0,0,0-2-21.9c7.8,1.1,10.3,4.1,10.3,4.1m3.9,31.2a19.8,19.8,0,0,1-9.7,7.8,209.6,209.6,0,0,0-2.3-21.2A200,200,0,0,1,217,92.9a89.7,89.7,0,0,1-24-.3,101.5,101.5,0,0,0,15.6,15.6,161,161,0,0,1-10.5,15.9,57.9,57.9,0,0,0,20.8-9.2A20.8,20.8,0,0,1,225,121s3.7-5,4.8-16.4a54.2,54.2,0,0,0,9.7-22.8M164.4,86h0a244.8,244.8,0,0,0-13.1,21.7,139.7,139.7,0,0,1-4.4-27c-7.5-2.5-15-5.3-22.6-8.7a231.1,231.1,0,0,1,22.3-9.4,127,127,0,0,1,3.9-25.9,205.5,205.5,0,0,0,12.5,20c8.6-2.7,18.1-5.5,28.4-7.7,0,0-7.5,9.4-17,22.8a224.5,224.5,0,0,0,18.9,21.1c-.3-.3-12.5-2.5-28.9-6.9"/></g><path class="c" d="M786.2,94.4a34.7,34.7,0,0,1,19.1-13.9,29.2,29.2,0,0,0-3.7,3.4,22,22,0,0,1,11.9,1.5c.5,3.6.7,7.1,1.3,10.7.5-3.6.8-7.1,1.3-10.7a21.5,21.5,0,0,1,11.5-1.5l.3.2v-.3a29.1,29.1,0,0,0-3.7-3.3,34.6,34.6,0,0,1,19.2,13.9,38.3,38.3,0,0,0-4.4-2.5,21.7,21.7,0,0,1,2.2,11.7l-9.8,4.6,10.5-2.1a22,22,0,0,1,5.3,10.8,29.4,29.4,0,0,0,2-4.4,33.7,33.7,0,0,1-7.2,22,22.4,22.4,0,0,0,.9-4.5,23.2,23.2,0,0,1-10.4,5.7c-2.5-2.7-4.9-5.4-7.5-8l5.4,9.4a22.7,22.7,0,0,1-8.8,8.3,37.8,37.8,0,0,0,4.7.6,35.2,35.2,0,0,1-23.1,0,35.5,35.5,0,0,0,4.7-.6,21.7,21.7,0,0,1-8.7-8.3c1.8-3.1,3.6-6.2,5.3-9.4-2.6,2.6-4.9,5.3-7.4,8a23.5,23.5,0,0,1-10.5-5.7,37.3,37.3,0,0,0,.9,4.6,34.6,34.6,0,0,1-7.1-22.1,21.9,21.9,0,0,0,2,4.4,21.8,21.8,0,0,1,5.2-10.8l10.5,2c-3.2-1.6-6.5-3-9.8-4.5A22.1,22.1,0,0,1,790.5,92a22.6,22.6,0,0,0-4.3,2.4m28.6,3.3-15.1,10.9,5.7,17.8h18.8c1.8-5.9,3.8-11.8,5.7-17.8L814.8,97.7Z"/><path class="g" d="M805.3,0h.7a2.2,2.2,0,0,1,.9,1.4c2.7,14.6,5.5,29.3,8.2,43.9a1.4,1.4,0,0,1-1,1.8,52.7,52.7,0,0,0-15.9,5.5A52,52,0,0,0,778.4,72c-.3.5-.7,1.1-1.3,1.1a9,9,0,0,1-2.4-1.2L737.5,50.3c-.6-.3-1.1-.8-.9-1.4a10.8,10.8,0,0,1,1.4-2.6A98.6,98.6,0,0,1,778.7,8.9,100.4,100.4,0,0,1,805.3,0Z"/><path class="h" d="M830.3,11.1a99.6,99.6,0,0,1,66.9,23.6l1.3,1.2a1.5,1.5,0,0,1-.3,1.8L868.9,71.4c-.3.4-.6.8-1.1.7s-1.1-.4-1.5-.8a51.2,51.2,0,0,0-41-11.8c-.5,0-1.1.2-1.6-.1a2,2,0,0,1-.6-1.2l-6.3-42.3-.3-2.5a1.3,1.3,0,0,1,1.1-1.2A107,107,0,0,1,830.3,11.1Z"/><path class="i" d="M720,50a1.4,1.4,0,0,1,1.5.2l39.7,21.2a1.5,1.5,0,0,1,.3,2.2,51,51,0,0,0-2.7,42.7c.1.5.5,1.2.2,1.8s-1.1.7-1.6,1l-41.2,15.8a1.3,1.3,0,0,1-1.7-.4,21.8,21.8,0,0,1-1.1-2.7,99,99,0,0,1-1.7-62.5,101.9,101.9,0,0,1,7.6-18.4c.2-.3.3-.7.7-.9Z"/><path class="j" d="M895.3,52.5a1.2,1.2,0,0,1,1.5.3,98.1,98.1,0,0,1,25.7,39.3,101,101,0,0,1,5.7,30.7v5.4c-.1.9-.1,1.8-.2,2.7a1.5,1.5,0,0,1-1.7.8l-44.9-2.2c-.9.1-1.4-.9-1.2-1.7a51,51,0,0,0-15.7-39.7,3.2,3.2,0,0,1-1.2-1.4c-.1-.5.3-1,.7-1.4l29.7-31.2A8.1,8.1,0,0,1,895.3,52.5Z"/><path class="k" d="M810,76.5a37.4,37.4,0,0,1,33.9,60.6,37.5,37.5,0,0,1-54,4.4,36.9,36.9,0,0,1-12.4-24.7A37.2,37.2,0,0,1,810,76.5M786.2,94.4a22.6,22.6,0,0,1,4.3-2.4,22.1,22.1,0,0,0-2.2,11.6c3.3,1.5,6.6,2.9,9.8,4.5l-10.5-2a21.8,21.8,0,0,0-5.2,10.8,21.9,21.9,0,0,1-2-4.4,34.6,34.6,0,0,0,7.1,22.1,37.3,37.3,0,0,1-.9-4.6,23.5,23.5,0,0,0,10.5,5.7c2.5-2.7,4.8-5.4,7.4-8-1.7,3.2-3.5,6.3-5.3,9.4a21.7,21.7,0,0,0,8.7,8.3,35.5,35.5,0,0,1-4.7.6,35.2,35.2,0,0,0,23.1,0,37.8,37.8,0,0,1-4.7-.6,22.7,22.7,0,0,0,8.8-8.3l-5.4-9.4c2.6,2.6,5,5.3,7.5,8a23.2,23.2,0,0,0,10.4-5.7,22.4,22.4,0,0,1-.9,4.5,33.7,33.7,0,0,0,7.2-22,29.4,29.4,0,0,1-2,4.4,22,22,0,0,0-5.3-10.8l-10.5,2.1,9.8-4.6A21.7,21.7,0,0,0,839,91.9a38.3,38.3,0,0,1,4.4,2.5,34.6,34.6,0,0,0-19.2-13.9,29.1,29.1,0,0,1,3.7,3.3v.3l-.3-.2a21.5,21.5,0,0,0-11.5,1.5c-.5,3.6-.8,7.1-1.3,10.7-.6-3.6-.8-7.1-1.3-10.7a22,22,0,0,0-11.9-1.5,29.2,29.2,0,0,1,3.7-3.4,34.7,34.7,0,0,0-19.1,13.9Z"/><path class="k" d="M814.8,97.7l15.1,10.9c-1.9,6-3.9,11.9-5.7,17.8H805.4l-5.7-17.8,15.1-10.9Z"/><path class="k" d="M826,241.7a7.7,7.7,0,0,1,5.9,1.2,7.2,7.2,0,0,1,3.1,6.8,7.5,7.5,0,0,1-5.6,6.4,7.2,7.2,0,0,1-7.2-2.2,7.5,7.5,0,0,1,3.8-12.2Z"/><path class="k" d="M706.1,249.2h13.1V288H735v11.4H706.1V249.2Z"/><path class="k" d="M787.3,249.2h13V288h15.8v11.4H787.3V249.2Z"/><path class="k" d="M745.6,262a18.6,18.6,0,0,1,11.3-3.6,15,15,0,0,1,6.9,1.7,22.9,22.9,0,0,1,4.3,3.2v-4.1h12v40.2H767.9v-3.9a17.1,17.1,0,0,1-12.3,4.9,18.3,18.3,0,0,1-11.7-4.1,19.1,19.1,0,0,1-6.1-10.5,26,26,0,0,1-.3-10.4,21.5,21.5,0,0,1,8.1-13.4m10.9,7.9a8.6,8.6,0,0,0-5,3.3c-2.5,3.1-2.6,7.5-1,11.1a9,9,0,0,0,6,4.9,9.9,9.9,0,0,0,10.7-4.6c2.4-4.2,1.4-10.1-2.4-13a10.2,10.2,0,0,0-8.3-1.7Z"/><path class="k" d="M848.1,260.6a17.2,17.2,0,0,1,12.6-1.7,15.3,15.3,0,0,1,7.7,4.8v-4.5H880v30.7a75.8,75.8,0,0,1-.3,8.3,16.9,16.9,0,0,1-5.9,10.6,21.4,21.4,0,0,1-13.1,4.7h-2.5a23.5,23.5,0,0,1-11.5-3.3,15.4,15.4,0,0,1-7.1-10.7h13.7a9,9,0,0,0,2,2.3c1.5,1,3.3,1,5,1s5.1-.9,6.6-3.1.9-4.1.9-6.2a20.8,20.8,0,0,1-8.5,4.3,16.3,16.3,0,0,1-10.4-1.4,17.4,17.4,0,0,1-8.9-10.6,24.2,24.2,0,0,1,.3-15.5,17.9,17.9,0,0,1,7.8-9.7m8.5,8.6a8.2,8.2,0,0,0-5.4,5.6c-1,3.5-.6,7.7,1.9,10.5s6.7,3.2,9.9,1.8a9,9,0,0,0,4.5-4.5,11.1,11.1,0,0,0,.1-8.6,8.1,8.1,0,0,0-4.6-4.5A10,10,0,0,0,856.6,269.2Z"/><path class="k" d="M893.9,261.8a18.5,18.5,0,0,1,14.8-2.9,17.4,17.4,0,0,1,7.5,4.4v-4.1h12v40.2H916v-3.9a18,18,0,0,1-4.9,3.4,19.3,19.3,0,0,1-15.1-.1,17.8,17.8,0,0,1-9.3-10.1,27.2,27.2,0,0,1-1.1-13.6,22,22,0,0,1,8.3-13.3m10.5,8.2a7.8,7.8,0,0,0-4.4,2.7c-2.8,3-3.1,7.6-1.5,11.2a8.7,8.7,0,0,0,5.2,5.1,10.2,10.2,0,0,0,11.2-3.8,10.4,10.4,0,0,0-1.9-13.5,10,10,0,0,0-8.6-1.7Z"/><path class="k" d="M821.5,259.2h12.2v40.2H821.5V259.2Z"/><path class="l" d="M747.6,129.2a1.4,1.4,0,0,1,2,1A51.4,51.4,0,0,0,781.9,159a1.4,1.4,0,0,1,1.1,1.9c-4.4,14.3-8.9,28.6-13.4,42.9a1.4,1.4,0,0,1-1.9,1,99.6,99.6,0,0,1-62.3-56.3v-.6a2.9,2.9,0,0,1,1.2-1l41-17.7Z"/><path class="m" d="M866.8,134.9h1l44.6,3.5a1.3,1.3,0,0,1,1.3,1.6,98.8,98.8,0,0,1-20.6,53.6A97.2,97.2,0,0,1,873,212.9a1.2,1.2,0,0,1-1.9-.3l-25.6-34.8a9,9,0,0,1-1.4-2.2c-.2-.8.6-1.3,1.1-1.7a51,51,0,0,0,20.7-37c0-.7,0-1.8.9-2Z"/><path class="n" d="M829.8,167.1a1.4,1.4,0,0,1,1.7.8l25,37.2a1.5,1.5,0,0,1-.9,2.3,99.8,99.8,0,0,1-82.2,13.1,1.2,1.2,0,0,1-.9-1.7l12-43.4a1.4,1.4,0,0,1,1.9-1,51.3,51.3,0,0,0,33.9-2.1,54.6,54.6,0,0,0,9.5-5.2Z"/><path class="o" d="M1073.5,280l.8-3.4h6.4v25.2c0,4.9-1.4,8.4-4.6,11a16.7,16.7,0,0,1-9.9,3.2,17.4,17.4,0,0,1-12.6-4.9l4.1-5.6a11.7,11.7,0,0,0,8.1,3.5c5.4,0,7.7-2.7,7.7-6.6v-1.9a9.7,9.7,0,0,1-7.5,3.2c-7.5,0-13.4-6.1-13.4-13.9a13.5,13.5,0,0,1,13.5-13.6,8.8,8.8,0,0,1,7.4,3.8m-6.5,2.8a7,7,0,1,0,6.9,7,6.9,6.9,0,0,0-6.9-7M1025.4,239c-3.1,0-5.6,1.7-6.2,4.6h12.2a5.9,5.9,0,0,0-6-4.6m.4,21.4c-8.2,0-14.2-5.7-14.2-13.8a13.7,13.7,0,0,1,14-14c6.4,0,13,4.8,13,13.8a11.9,11.9,0,0,1-.2,2.5h-19.3a6.5,6.5,0,0,0,6.6,5,9.4,9.4,0,0,0,7.1-3.1l4.4,4.5a15,15,0,0,1-11.4,5.1m81.8-21.4c-3,0-5.6,1.7-6.2,4.6h12.2a5.9,5.9,0,0,0-6-4.6m.4,21.4c-8.2,0-14.2-5.7-14.2-13.8a13.7,13.7,0,0,1,14-14c6.4,0,13,4.8,13,13.8a11.9,11.9,0,0,1-.2,2.5h-19.3a6.6,6.6,0,0,0,6.6,5,9.2,9.2,0,0,0,7.1-3.1l4.4,4.5a14.9,14.9,0,0,1-11.4,5.1m18.4,21.9a6.1,6.1,0,0,0-6.2,4.6h12.2a6,6,0,0,0-6-4.6m.4,21.4c-8.2,0-14.2-5.6-14.2-13.8a13.7,13.7,0,0,1,14-14c6.4,0,13,4.8,13,13.8a12.8,12.8,0,0,1-.2,2.6h-19.3a6.6,6.6,0,0,0,6.6,4.9,9.2,9.2,0,0,0,7.1-3.1l4.4,4.6a15,15,0,0,1-11.4,5m-121.1-21.4a6,6,0,0,0-6.2,4.6h12.2a6,6,0,0,0-6-4.6m.4,21.4c-8.2,0-14.2-5.6-14.2-13.8a13.7,13.7,0,0,1,14-14c6.4,0,13,4.8,13,13.8a12.8,12.8,0,0,1-.2,2.6H999.4a6.5,6.5,0,0,0,6.6,4.9,9.4,9.4,0,0,0,7.1-3.1l4.4,4.6a15.3,15.3,0,0,1-11.4,5m-40.5-.7V263.9h7.8v31.7h16.9V303Zm29.6-43.3V233.3h6.3l.8,3.8a7.2,7.2,0,0,1,6.7-4.1,7.6,7.6,0,0,1,2.1.3v7a11.5,11.5,0,0,0-2.6-.3c-3.5,0-6,2.1-6,6.4v13.3Zm128.5,0V233.3h6.3l.8,3.8a7,7,0,0,1,6.7-4.1l2,.3v7a10.7,10.7,0,0,0-2.5-.3c-3.6,0-6,2.1-6,6.4v13.3Zm-51-15.6c0-2.9-1.5-4.6-4-4.6s-4.3,1.7-4.3,4.7v15.5h-7.3V244.1c0-2.9-1.6-4.6-4.1-4.6s-4.3,1.7-4.3,4.7v15.5h-7.3V233.3h6.4l.8,3.4a7,7,0,0,1,6.5-4.1,8.6,8.6,0,0,1,7.4,3.9l.2.3.2-.3a8.7,8.7,0,0,1,7.7-3.9c5.6,0,9.4,4.2,9.4,10.2v16.9h-7.2V244.1Zm14.7-14.4a4.5,4.5,0,1,1,4.6-4.4,4.5,4.5,0,0,1-4.6,4.4m-3.7,3.6h7.3v26.4h-7.3Zm-47.8,49.5a7,7,0,1,0,6.8,7,6.7,6.7,0,0,0-6.8-7m-1.5,20.9c-7,0-13.1-6.4-13.1-13.9s6.1-13.6,13.1-13.6c4,0,6.6,1.4,8.2,3.8l.8-3.4h6.4V303h-6.4l-.8-3.4a9.6,9.6,0,0,1-8.2,4.1m62.8,0c-5.8,0-12.9-3.2-12.9-13V276.6h7.3v13.6c0,4.5,2,6.5,5.6,6.5s5.6-2.3,5.6-6.5V276.6h7.3v14.1c0,9.8-7.2,13-12.9,13M973.4,239.1h4.5c3.9,0,6.8-2.2,6.8-6.1s-2.9-6-6.8-6h-4.5Zm-7.8,20.6V219.6h12.7c8.3,0,14.5,4.9,14.5,13.4s-6.1,13.6-14.5,13.6h-4.9v13.1Z"/><path class="o" d="M1117.8,98.9a56,56,0,0,1-8.7,6v12.2c3.3,3.6,6.6,6.6,9.1,12.1,4.7-8.2,3.8-20.3-.5-30.3m-3.8,39.9a22.8,22.8,0,0,0-5.1-9.7l-9.3.2s-12.5,10.5-20.1,10.7c0,0,4.2,7.7,6.3,11.7,4.2-.9,11.6-4.2,14.6-7.6a41.6,41.6,0,0,1,1.6,13.5c4.2-2.3,9.9-8.7,12-18.8m-12-22V104.7a42.8,42.8,0,0,1-11.5-6.3c-11.9,1.8-26.3,13.5-26.3,13.5s4.8,9,10.2,18.7c9.3,1.3,23.1-10.3,27.6-13.8m31.7,50.5-7.6-8.3c-2.2,22.4-13.4,41.4-34.1,54.6l-3.1-12.1c-17.5,12.4-47.5,20.4-73.3,6.1,3.2-15.9,6-32.1-.1-51.4-14.3,21.6-26.9,30-26.9,30-9.7-15.8-8.8-47.5-5.9-56.8l-16.1,4.8c0-10.6,7.9-33.3,19.3-46l-10.1-1.5h0a93.3,93.3,0,0,1,29.5-34.1h0c-3.7,5.7-3.8,19.9,7.2,25.3-4.7-7.9-5.3-17.7-.4-22.8s13-3.4,18.3.6c-1.6-4.5-6.1-10-13-10.4h0a95.2,95.2,0,0,1,43-10.1c2.9,0,5.8.1,8.6.3h0c4.5,1.8,11.1,8,14.1,11.8a22.2,22.2,0,0,0-2.3-10c16.7,4,24.7,10.7,28.1,13.9.7,7,2.8,11.3,5.7,18-5.4-6-19.1-15.5-25.6-17.8,0,0-.5,6.1-2.8,9.1-12.9-9.2-19.3-11.5-19.3-11.5-14.2,2-23.4,7.4-28.3,11.6l4.3,3.6c-8.6,2.6-14.2,9.7-14.2,9.7s7.7,1.2,7.7,1.2-.8,8.7,10.4,14.2c9.6,4.7,23.4-1.1,36.3,4-8.5-9.6-14.4-13.9-14.4-13.9a35.9,35.9,0,0,0-5.8-.7c-3,0-7.4.6-12.3-1.3a47.9,47.9,0,0,1-7.1-3.7,28.5,28.5,0,0,1,14.7-7.3,48.8,48.8,0,0,1,14.1,6.6,13.2,13.2,0,0,1,8.5-3.8s-4.3,3.9-3,8.7a145.4,145.4,0,0,1,13,13.2c6.9-3.7,21.9-2.9,25,.6-3.9-4.9-9.5-9.1-13.9-12.6-.5-1.8-5.2-8.3-6.1-8.9a26.3,26.3,0,0,1,8.6,4.9,11.5,11.5,0,0,1,6.3-4,10.4,10.4,0,0,1,3.5,7,9.1,9.1,0,0,1-2.7,2.2l7.3,7.7.7-5.5c16.8,23.5,26,50.6,14.2,84.8m-133-148.6a82.7,82.7,0,0,1,17.1,10.7c-.6-2.5-2.5-14.2-3.6-21.6l23.2,15.7c1.7-5.3,7.8-22.6,7.8-22.6s11,17.4,12.9,20.2c2.3-2.3,15.5-16.6,18.9-20.3.6,8.3,1.4,20,1.6,21.8a68.9,68.9,0,0,1,14.1-14.1c-3.6,7-5.4,16.8-6.2,24.6a99,99,0,0,0-73.9,8.8c-2.6-7.6-6.6-17-11.9-23.2"/><polygon class="p" points="1181.7 174.1 1275.6 232.6 1238.6 174.1 1181.7 174.1"/><polygon class="q" points="1311.8 174.1 1275.6 232.6 1368.7 174.1 1311.8 174.1"/><polygon class="r" points="1238.6 174.1 1275.6 232.6 1275.6 174.1 1238.6 174.1"/><polygon class="s" points="1275.2 72.8 1238.6 174.1 1275.6 174.1 1275.2 72.8"/><polygon class="t" points="1275.2 72.8 1275.6 174.1 1311.8 174.1 1275.2 72.8"/><polygon class="u" points="1275.6 174.1 1275.6 232.6 1311.8 174.1 1275.6 174.1"/><path class="v" d="M1368.7,174.1h0L1294.3.8h-38.6l-74,173.3h56.9l36.6-101.3,17.1,47.2h-17.1l-9.7,29.3h37.4l8.9,24.8h56.9"/><polyline class="w" points="1180.9 249.7 1243.9 249.7 1243.9 257.4 1180.9 257.4 1180.9 249.7"/><polyline class="x" points="1243.9 249.7 1306.5 249.7 1306.5 257.4 1243.9 257.4 1243.9 249.7"/><polyline class="y" points="1306.5 249.7 1369.6 249.7 1369.6 257.4 1306.5 257.4 1306.5 249.7"/><path class="z" d="M1193.4,316.1a22.3,22.3,0,0,1-8.1-1.4,18.1,18.1,0,0,1-6.2-3.6.8.8,0,0,1-.1-1l4.2-4.7a.5.5,0,0,1,.8-.1,15.3,15.3,0,0,0,9.7,3.8,7.5,7.5,0,0,0,4.5-1.2,3.6,3.6,0,0,0,1.6-3.2,3.1,3.1,0,0,0-1.3-2.7c-.8-.7-2.3-1.1-4.4-1.4l-2-.3c-7.8-1.1-11.8-4.8-11.8-11.2a10.3,10.3,0,0,1,3.6-8.2c2.4-2.1,5.6-3.1,9.6-3.1a20.3,20.3,0,0,1,12.6,3.8c.4.3.4.5.2.9l-3.4,4.9c-.2.3-.5.4-.7.2a15.9,15.9,0,0,0-8.7-2.8,5.3,5.3,0,0,0-3.7,1.1,3.8,3.8,0,0,0-1.3,2.9,3.3,3.3,0,0,0,1.4,2.7,11.3,11.3,0,0,0,4.4,1.4l2,.3c7.8,1,11.7,4.8,11.7,11.2a10.7,10.7,0,0,1-3.8,8.5C1201.7,315.1,1198.1,316.1,1193.4,316.1Z"/><path class="z" d="M1213.5,315V278.9c0-.4.2-.5.6-.5h23.8c.4,0,.6.1.6.5v5.9c0,.3-.2.5-.6.5h-16a.3.3,0,0,0-.3.3V293a.3.3,0,0,0,.3.3h13.3a.5.5,0,0,1,.6.6v5.8c0,.4-.2.5-.6.5h-13.3c-.2,0-.3.1-.3.4v7.7a.3.3,0,0,0,.3.3h16c.4,0,.6.2.6.5V315c0,.4-.2.5-.6.5h-23.8C1213.7,315.5,1213.5,315.4,1213.5,315Z"/><path class="z" d="M1273.6,315.5h-7.7a.9.9,0,0,1-.9-.5l-6.4-13.6h-4.9c-.2,0-.4.1-.4.3V315c0,.4-.1.5-.5.5h-6.9c-.4,0-.6-.1-.6-.5V278.9c0-.4.2-.5.6-.5h14.8c3.8,0,6.8,1,9.1,3.2a10.8,10.8,0,0,1,3.5,8.3,11.9,11.9,0,0,1-1.7,6.3,10.8,10.8,0,0,1-4.9,4l7.3,14.7a.3.3,0,0,1,0,.4C1273.9,315.5,1273.8,315.5,1273.6,315.5Zm-13.4-21a5.3,5.3,0,0,0,3.7-1.2,4.4,4.4,0,0,0,1.4-3.4,4.2,4.2,0,0,0-1.4-3.3,4.9,4.9,0,0,0-3.7-1.3h-6.5c-.2,0-.4.1-.4.3v8.6c0,.2.2.3.4.3Z"/><path class="z" d="M1279.7,315V278.9c0-.4.2-.5.6-.5h6.9c.4,0,.6.1.6.5V315c0,.4-.2.5-.6.5h-6.9C1279.9,315.5,1279.7,315.4,1279.7,315Z"/><path class="z" d="M1295.7,315V278.9c0-.4.2-.5.6-.5h23.8c.4,0,.6.1.6.5v5.9c0,.3-.2.5-.6.5h-16a.3.3,0,0,0-.3.3V293a.3.3,0,0,0,.3.3h13.4c.3,0,.5.2.5.6v5.8c0,.4-.2.5-.5.5h-13.4c-.2,0-.3.1-.3.4v7.7a.3.3,0,0,0,.3.3h16c.4,0,.6.2.6.5V315c0,.4-.2.5-.6.5h-23.8C1295.9,315.5,1295.7,315.4,1295.7,315Z"/><path class="z" d="M1337.8,315l12.8-36.1a.6.6,0,0,1,.7-.5h6.9c.4,0,.6.1.7.5l12.6,36.1c.1.4,0,.5-.4.5H1364a.6.6,0,0,1-.7-.5l-2.1-6.5h-13l-2.1,6.5a.6.6,0,0,1-.7.5h-7.2C1337.9,315.5,1337.7,315.4,1337.8,315Zm12.6-13.3h8.6l-4.2-13.1h-.2Z"/><path class="aa" d="M1431.4,93c4-12.9,10.4-23.5,18.9-24.4,16.3-1.8,35.3,25.6,38.7,57.8,3,29.7-3.9,62.3-20.2,64.2-10,1.1-19.2-3-26.3-18.4a53.8,53.8,0,0,0,24.9-1.4,206.4,206.4,0,0,0,5-45.7A135.9,135.9,0,0,0,1451,85.7a85.7,85.7,0,0,0-19.6,7.3"/><path class="aa" d="M1444.5,155.6c-6.5.8-12.9-8.8-14.4-21.4s2.5-23.3,8.9-24.1,12.8,8.8,14.3,21.3-2.4,23.4-8.8,24.2"/><path class="aa" d="M1591.1,93.8a21.1,21.1,0,1,1-23.4-18.9,21.4,21.4,0,0,1,23.4,18.9h0"/><path class="aa" d="M1629.5,89.6a61.6,61.6,0,1,0-122.1,14,64.5,64.5,0,0,0,54.6,57.6s-.6-6.2-1.3-12.3-1.5-12.1-1.5-12.1l-7.3.8a137.7,137.7,0,0,1-15-17.4,111.5,111.5,0,0,1-10.5-18.8s3.1-11,7.2-21.2,9.4-19.8,9.4-19.8a194.6,194.6,0,0,1,20-3.5c10.8-1.2,22-1.3,22-1.3A135.4,135.4,0,0,1,1598.9,72a162.8,162.8,0,0,1,11.6,19.8,103.4,103.4,0,0,1-5.5,20.3,137.4,137.4,0,0,1-11.1,20.7l-6.6,1s.9,5.8,1.3,11.8.8,12.4.8,12.4a64.4,64.4,0,0,0,40.1-68.4"/><path class="aa" d="M1617.2,36.1c-15.5-13.9-28.3-24.9-28.2-25.6a45,45,0,0,1,10,4.5,115.4,115.4,0,0,1,22.5,15.5,102.3,102.3,0,0,1,24.2,30.1,287.8,287.8,0,0,1-28.5-24.5"/><path class="aa" d="M1505.9,8.2a122.7,122.7,0,0,0-22,10.4,123.1,123.1,0,0,0,41.5-15.4,107.3,107.3,0,0,0-19.5,5"/><path class="aa" d="M1562.7,4.5a44.9,44.9,0,0,0-24.8-2.7,23.4,23.4,0,0,1,7.6,2.5l-30.2,13.6-36.1,9.4a8,8,0,0,1-4.5-2.4c-9.4,7.1-15.3,13.5-15.2,15.1s25-2.7,53.5-12.5,50.7-20.1,49.7-23"/><path class="aa" d="M1643.9,131.4c3.7-26.5,9.1-48.1,11.7-47.2a95.4,95.4,0,0,1,4.6,50.2c-3.2,22.2-13.7,45.8-18.1,45.6-2.8-.2-1.9-22.2,1.8-48.6"/><path class="aa" d="M1525.1,231.1c-13.3-2.7-19.9-7.9-21.7-15.1-4.1-15.9,21.7-30.6,53.7-35.5,29.2-4.5,54.4,4.9,57,15.8,2.1,8.4-1.8,15.2-13,22.6a56.2,56.2,0,0,0,.5-18.3,317,317,0,0,0-42.2-6.8,163.9,163.9,0,0,0-39.9,20,46.3,46.3,0,0,0,5.6,17.3"/><path class="aa" d="M1585.8,217.1c.9,5.7-8.5,11.9-21,13.9s-23.4-.9-24.3-6.6,8.5-11.9,21-13.9,23.4,1,24.3,6.6"/><polygon class="aa" points="1421.6 272.5 1421.6 304.6 1434.7 304.6 1434.7 314 1410.8 314 1410.8 272.5 1421.6 272.5"/><rect class="aa" x="1452.2" y="272.5" width="10.8" height="41.48"/><path class="aa" d="M1502.4,271a20.1,20.1,0,0,1,18.7,10.4l-8.7,4.8a11.1,11.1,0,0,0-10.1-5.8c-7.1,0-10.3,5.8-10.3,13.3s3.2,12.7,11.2,12.7a9.1,9.1,0,0,0,9.2-7.4h-9.5v-8.6h20.8v2.3a20.1,20.1,0,0,1-17.1,22.6,18.8,18.8,0,0,1-4.1.2,21.4,21.4,0,0,1-21.7-20.8v-1.4a21.6,21.6,0,0,1,20.9-22.3h.7"/><path class="aa" d="M1552,272.5V298a6.7,6.7,0,0,0,5.9,7.4,4.3,4.3,0,0,0,1.6,0,6.6,6.6,0,0,0,7.3-5.8,4.1,4.1,0,0,0,.1-1.1v-26h10.9v26.6c0,9.4-6.5,16.1-18.6,16.1-9.1,0-18-4.8-18-15V272.5Z"/><polygon class="aa" points="1608.7 304.8 1622.1 304.8 1622.1 314 1597.9 314 1597.9 272.5 1621.9 272.5 1621.9 281.9 1608.7 281.9 1608.7 288.7 1621.1 288.7 1621.1 297.8 1608.7 297.8 1608.7 304.8"/><polygon class="aa" points="1680.2 314 1669.4 314 1669.4 281.4 1663.4 281.4 1663.4 272.5 1680.2 272.5 1680.2 314"/><path class="aa" d="M1431.4,93c4-12.9,10.4-23.5,18.9-24.4,16.3-1.8,35.3,25.6,38.7,57.8,3,29.7-3.9,62.3-20.2,64.2-10,1.1-19.2-3-26.3-18.4a53.8,53.8,0,0,0,24.9-1.4,206.4,206.4,0,0,0,5-45.7A135.9,135.9,0,0,0,1451,85.7a85.7,85.7,0,0,0-19.6,7.3"/><path class="aa" d="M1444.5,155.6c-6.5.8-12.9-8.8-14.4-21.4s2.5-23.3,8.9-24.1,12.8,8.8,14.3,21.3-2.4,23.4-8.8,24.2"/><path class="aa" d="M1591.1,93.8a21.1,21.1,0,1,1-23.4-18.9,21.4,21.4,0,0,1,23.4,18.9h0"/><path class="aa" d="M1629.5,89.6a61.6,61.6,0,1,0-122.1,14,64.5,64.5,0,0,0,54.6,57.6s-.6-6.2-1.3-12.3-1.5-12.1-1.5-12.1l-7.3.8a137.7,137.7,0,0,1-15-17.4,111.5,111.5,0,0,1-10.5-18.8s3.1-11,7.2-21.2,9.4-19.8,9.4-19.8a194.6,194.6,0,0,1,20-3.5c10.8-1.2,22-1.3,22-1.3A135.4,135.4,0,0,1,1598.9,72a162.8,162.8,0,0,1,11.6,19.8,103.4,103.4,0,0,1-5.5,20.3,137.4,137.4,0,0,1-11.1,20.7l-6.6,1s.9,5.8,1.3,11.8.8,12.4.8,12.4a64.4,64.4,0,0,0,40.1-68.4"/><path class="aa" d="M1617.2,36.1c-15.5-13.9-28.3-24.9-28.2-25.6a45,45,0,0,1,10,4.5,115.4,115.4,0,0,1,22.5,15.5,102.3,102.3,0,0,1,24.2,30.1,287.8,287.8,0,0,1-28.5-24.5"/><path class="aa" d="M1505.9,8.2a122.7,122.7,0,0,0-22,10.4,123.1,123.1,0,0,0,41.5-15.4,107.3,107.3,0,0,0-19.5,5"/><path class="aa" d="M1562.7,4.5a44.9,44.9,0,0,0-24.8-2.7,23.4,23.4,0,0,1,7.6,2.5l-30.2,13.6-36.1,9.4a8,8,0,0,1-4.5-2.4c-9.4,7.1-15.3,13.5-15.2,15.1s25-2.7,53.5-12.5,50.7-20.1,49.7-23"/><path class="aa" d="M1643.9,131.4c3.7-26.5,9.1-48.1,11.7-47.2a95.4,95.4,0,0,1,4.6,50.2c-3.2,22.2-13.7,45.8-18.1,45.6-2.8-.2-1.9-22.2,1.8-48.6"/><path class="aa" d="M1525.1,231.1c-13.3-2.7-19.9-7.9-21.7-15.1-4.1-15.9,21.7-30.6,53.7-35.5,29.2-4.5,54.4,4.9,57,15.8,2.1,8.4-1.8,15.2-13,22.6a56.2,56.2,0,0,0,.5-18.3,317,317,0,0,0-42.2-6.8,163.9,163.9,0,0,0-39.9,20,46.3,46.3,0,0,0,5.6,17.3"/><path class="aa" d="M1585.8,217.1c.9,5.7-8.5,11.9-21,13.9s-23.4-.9-24.3-6.6,8.5-11.9,21-13.9,23.4,1,24.3,6.6"/><polygon class="aa" points="1421.6 272.5 1421.6 304.6 1434.7 304.6 1434.7 314 1410.8 314 1410.8 272.5 1421.6 272.5"/><rect class="aa" x="1452.2" y="272.5" width="10.8" height="41.48"/><path class="aa" d="M1502.4,271a20.1,20.1,0,0,1,18.7,10.4l-8.7,4.8a11.1,11.1,0,0,0-10.1-5.8c-7.1,0-10.3,5.8-10.3,13.3s3.2,12.7,11.2,12.7a9.1,9.1,0,0,0,9.2-7.4h-9.5v-8.6h20.8v2.3a20.1,20.1,0,0,1-17.1,22.6,18.8,18.8,0,0,1-4.1.2,21.4,21.4,0,0,1-21.7-20.8v-1.4a21.6,21.6,0,0,1,20.9-22.3h.7"/><path class="aa" d="M1552,272.5V298a6.7,6.7,0,0,0,5.9,7.4,4.3,4.3,0,0,0,1.6,0,6.6,6.6,0,0,0,7.3-5.8,4.1,4.1,0,0,0,.1-1.1v-26h10.9v26.6c0,9.4-6.5,16.1-18.6,16.1-9.1,0-18-4.8-18-15V272.5Z"/><polygon class="aa" points="1608.7 304.8 1622.1 304.8 1622.1 314 1597.9 314 1597.9 272.5 1621.9 272.5 1621.9 281.9 1608.7 281.9 1608.7 288.7 1621.1 288.7 1621.1 297.8 1608.7 297.8 1608.7 304.8"/><polygon class="aa" points="1680.2 314 1669.4 314 1669.4 281.4 1663.4 281.4 1663.4 272.5 1680.2 272.5 1680.2 314"/></svg>