<svg xmlns="http://www.w3.org/2000/svg" viewBox="0 0 106.7 106.2"><title>Asset 2</title><path d="M77.4,96.2a25,25,0,0,0,.2-9.8,69,69,0,0,1-9.4,11,73.8,73.8,0,0,1-14.1-.6,39.8,39.8,0,0,0,7.7,5.7c-5.5,3.3-9,3.7-9,3.7A52.1,52.1,0,0,0,90.5,91.3a49.1,49.1,0,0,1-13.1,4.9"/><path d="M54.1,96.6a121.2,121.2,0,0,1-11.7-5.9,131.9,131.9,0,0,1,2.2-16,70.1,70.1,0,0,1-12.5,9.6c-4.1-3-8.4-6.3-12.7-10a68.7,68.7,0,0,0,6,13.3,19.6,19.6,0,0,1-11.1,1.2s4.1,5.2,17,7.4c3.5,4.3,7.8,7.6,12.9,9,0,0-1.6-1.8-2-8,3.7,0,7.6-.2,11.9-.6"/><path d="M25.8,49.7A88.4,88.4,0,0,0,12.1,51a97.2,97.2,0,0,1-1.2-10.5A52,52,0,0,0,5.1,52.8C1.2,54.4,0,55.7,0,55.7a18.9,18.9,0,0,0,3.5,6.1A30.5,30.5,0,0,0,6.1,77a26.3,26.3,0,0,1,3.7-9.3,67.9,67.9,0,0,0,9.7,6.4A61.7,61.7,0,0,1,14.3,61,79.5,79.5,0,0,1,25.8,49.7"/><path d="M12.5,27.6a88.1,88.1,0,0,1,10.2-8.4,34.5,34.5,0,0,0-7.6,1,39.3,39.3,0,0,1,5.4-9.8S3.9,22.1.8,43.2c0,0,1.4-3.7,6-9.6a47,47,0,0,0,4.1,6.9,49.4,49.4,0,0,1,1.6-12.9"/><path d="M67.4,10.2A76.6,76.6,0,0,0,54.9,5.3,27.1,27.1,0,0,1,64.5,0,51.8,51.8,0,0,0,44,3.5a44.8,44.8,0,0,0-14.1.8c1.4,1,2.4,2.8,3.5,4.7A45.4,45.4,0,0,0,22.5,19.2,84.9,84.9,0,0,1,36,14.1c.6,1,.9,1.8,1.5,2.7a52.4,52.4,0,0,0,6.3,8,36.8,36.8,0,0,1,5.5-13.4,126.5,126.5,0,0,1,18.1-1.2"/><path d="M104,34.8A38.4,38.4,0,0,0,93.2,20.7c-3.7-7.6-7.8-11.1-7.8-11.1a12.4,12.4,0,0,1-.6,5.9,50,50,0,0,0-17.4-5.3A67.9,67.9,0,0,1,81.3,22.3a69.6,69.6,0,0,1-8.6,11.1c6.5-1.3,11.6-2.1,15.7-2.1a128.7,128.7,0,0,1,9.7,16,65.1,65.1,0,0,0-1.3-15.4c5.4.8,7.2,2.9,7.2,2.9"/><path d="M106.7,56.7a13.3,13.3,0,0,1-6.8,5.5,146,146,0,0,0-1.6-14.9,142.9,142.9,0,0,1-7.4,17.2,62.6,62.6,0,0,1-16.8-.2A74.4,74.4,0,0,0,85,75.3a111.1,111.1,0,0,1-7.4,11.1A39.9,39.9,0,0,0,92.3,80a14.6,14.6,0,0,1,4.3,4.3s2.5-3.5,3.3-11.6a36.8,36.8,0,0,0,6.8-16"/><path d="M54,59.6h0a167.5,167.5,0,0,0-9.2,15.3,93.9,93.9,0,0,1-3.2-19c-5.2-1.7-10.5-3.7-15.8-6a144.4,144.4,0,0,1,15.6-6.7A86.6,86.6,0,0,1,44.2,25,148.8,148.8,0,0,0,53,39.1c6-1.9,12.7-3.9,19.9-5.5,0,0-5.3,6.7-11.9,16.1A147.9,147.9,0,0,0,74.3,64.5c-.2-.2-8.8-1.7-20.3-4.9"/></svg>