<svg viewBox="0 0 266.1 50.9" xmlns="http://www.w3.org/2000/svg" xmlns:xlink="http://www.w3.org/1999/xlink"><clipPath id="a"><path d="m236.1 37.1-3.2 13.8 26.5-13.8z"/></clipPath><clipPath id="b"><path d="m259.5 37.1h-150.7l6.4-36.4a.8.8 0 0 1 .8-.7h150.1z"/></clipPath><g clip-path="url(#a)"><path d="m232.9 38.2h26.5v12.69h-26.5z" fill="#0e46a1"/><path d="m232.9 38.2h26.5v.04h-26.5z" fill="#0e46a1"/><path d="m232.9 38.1h26.5v.04h-26.5z" fill="#0e449d"/><path d="m232.9 38.1h26.5v.04h-26.5z" fill="#0d4399"/><path d="m232.9 38h26.5v.04h-26.5z" fill="#0d4196"/><path d="m232.9 38h26.5v.04h-26.5z" fill="#0d4094"/><path d="m232.9 37.9h26.5v.04h-26.5z" fill="#0d3f91"/><path d="m232.9 37.9h26.5v.04h-26.5z" fill="#0d3f8f"/><path d="m232.9 37.9h26.5v.04h-26.5z" fill="#0d3e8e"/><path d="m232.9 37.8h26.5v.04h-26.5z" fill="#0c3d8c"/><path d="m232.9 37.8h26.5v.04h-26.5z" fill="#0c3d8b"/><path d="m232.9 37.7h26.5v.04h-26.5z" fill="#0c3c8a"/><path d="m232.9 37.7h26.5v.04h-26.5z" fill="#0c3c89"/><path d="m232.9 37.6h26.5v.04h-26.5z" fill="#0c3c89"/><path d="m232.9 37.6h26.5v.04h-26.5z" fill="#0c3c88"/><path d="m232.9 37.6h26.5v.04h-26.5z" fill="#0c3b88"/><path d="m232.9 37.5h26.5v.04h-26.5z" fill="#0c3b88"/><g fill="#0c3b87"><path d="m232.9 37.5h26.5v.04h-26.5z"/><path d="m232.9 37.4h26.5v.04h-26.5z"/><path d="m232.9 37.4h26.5v.04h-26.5z"/><path d="m232.9 37.4h26.5v.04h-26.5z"/><path d="m232.9 37.3h26.5v.04h-26.5z"/><path d="m232.9 37.3h26.5v.04h-26.5z"/><path d="m232.9 37.2h26.5v.04h-26.5z"/><path d="m232.9 37.2h26.5v.04h-26.5z"/><path d="m232.9 37.1h26.5v.04h-26.5z"/><path d="m232.9 37.1h26.5v.04h-26.5z"/></g></g><path d="m109.7 37.1h-109.7l6.5-37.1h109.7z" fill="#c80a26"/><g clip-path="url(#b)"><path d="m108.8 36.5h157.2v.62h-157.2z" fill="#0d4194"/><path d="m108.8 36.5h157.2v.02h-157.2z" fill="#0d4194"/><path d="m108.8 36.4h157.2v.02h-157.2z" fill="#0d4295"/><path d="m108.8 36.4h157.2v.02h-157.2z" fill="#0d4296"/><path d="m108.8 36.4h157.2v.02h-157.2z" fill="#0d4397"/><path d="m108.8 36.4h157.2v.02h-157.2z" fill="#0d4399"/><path d="m108.8 36.4h157.2v.02h-157.2z" fill="#0d449a"/><path d="m108.8 36.3h157.2v.02h-157.2z" fill="#0e449b"/><path d="m108.8 36.3h157.2v.02h-157.2z" fill="#0e449c"/><path d="m108.8 36.3h157.2v.02h-157.2z" fill="#0e459d"/><path d="m108.8 36.3h157.2v.02h-157.2z" fill="#0e459e"/><path d="m108.8 36.3h157.2v.02h-157.2z" fill="#0e469f"/><path d="m108.8 36.2h157.2v.02h-157.2z" fill="#0e46a0"/><path d="m108.8 36.2h157.2v.02h-157.2z" fill="#0e47a1"/><path d="m108.8 36.2h157.2v.02h-157.2z" fill="#0e47a2"/><path d="m108.8 36.2h157.2v.02h-157.2z" fill="#0e48a4"/><path d="m108.8 36.1h157.2v.02h-157.2z" fill="#0e48a5"/><path d="m108.8 36.1h157.2v.02h-157.2z" fill="#0e49a6"/><path d="m108.8 36.1h157.2v.02h-157.2z" fill="#0f49a7"/><path d="m108.8 36.1h157.2v.02h-157.2z" fill="#0f4aa8"/><path d="m108.8 36.1h157.2v.02h-157.2z" fill="#0f4aa9"/><path d="m108.8 36h157.2v.02h-157.2z" fill="#0f4baa"/><path d="m108.8 36h157.2v.02h-157.2z" fill="#0f4bab"/><path d="m108.8 36h157.2v.02h-157.2z" fill="#0f4cac"/><path d="m108.8 36h157.2v.02h-157.2z" fill="#0f4cad"/><path d="m108.8 36h157.2v.02h-157.2z" fill="#0f4dae"/><path d="m108.8 35.9h157.2v.02h-157.2z" fill="#0f4daf"/><path d="m108.8 35.9h157.2v.02h-157.2z" fill="#0f4db0"/><path d="m108.8 35.9h157.2v.02h-157.2z" fill="#0f4eb1"/><path d="m108.8 35.9h157.2v.02h-157.2z" fill="#0f4eb2"/><path d="m108.8 35.8h157.2v.02h-157.2z" fill="#104fb3"/><path d="m108.8 35.8h157.2v.02h-157.2z" fill="#104fb4"/><path d="m108.8 35.8h157.2v.02h-157.2z" fill="#1050b5"/><path d="m108.8 35.8h157.2v.02h-157.2z" fill="#1050b6"/><path d="m108.8 35.8h157.2v.02h-157.2z" fill="#1050b6"/><path d="m108.8 35.7h157.2v.02h-157.2z" fill="#1051b7"/><g fill="#1051b8"><path d="m108.8 35.7h157.2v.02h-157.2z"/><path d="m108.8 18.6h157.2v17.07h-157.2z"/><path d="m108.8 1.3h157.2v17.32h-157.2z"/><path d="m108.8 1.3h157.2v.06h-157.2z"/></g><path d="m108.8 1.2h157.2v.06h-157.2z" fill="#1253b9"/><path d="m108.8 1.2h157.2v.06h-157.2z" fill="#1455bb"/><path d="m108.8 1.1h157.2v.06h-157.2z" fill="#1656bc"/><path d="m108.8 1h157.2v.06h-157.2z" fill="#1858bd"/><path d="m108.8 1h157.2v.06h-157.2z" fill="#1959be"/><path d="m108.8.9h157.2v.06h-157.2z" fill="#1b5bbf"/><path d="m108.8.9h157.2v.06h-157.2z" fill="#1c5cc0"/><path d="m108.8.8h157.2v.06h-157.2z" fill="#1e5dc1"/><path d="m108.8.8h157.2v.06h-157.2z" fill="#1f5ec2"/><path d="m108.8.7h157.2v.06h-157.2z" fill="#205fc3"/><path d="m108.8.6h157.2v.06h-157.2z" fill="#2160c3"/><path d="m108.8.6h157.2v.06h-157.2z" fill="#2261c4"/><path d="m108.8.5h157.2v.06h-157.2z" fill="#2362c5"/><path d="m108.8.5h157.2v.06h-157.2z" fill="#2462c5"/><path d="m108.8.4h157.2v.06h-157.2z" fill="#2563c6"/><path d="m108.8.3h157.2v.06h-157.2z" fill="#2564c6"/><path d="m108.8.3h157.2v.06h-157.2z" fill="#2664c6"/><path d="m108.8.2h157.2v.06h-157.2z" fill="#2664c7"/><path d="m108.8.2h157.2v.06h-157.2z" fill="#2765c7"/><path d="m108.8.1h157.2v.06h-157.2z" fill="#2765c7"/><path d="m108.8.1h157.2v.06h-157.2z" fill="#2765c7"/><path d="m108.8 0h157.2v.06h-157.2z" fill="#2765c7"/></g><path d="m207.5 49.5 2.2-10.3h1.5l-1.9 8.8h2.9l-.3 1.5z" fill="#c80a26"/><path d="m213.7 49.5 2.3-10.3h1.4l-2.2 10.3z" fill="#c80a26"/><path d="m224.7 39.2-4.3 10.3h-1.3v-10.3h1.6l-.4 7.2 2.8-7.2z" fill="#c80a26"/><path d="m224.2 49.5 2.3-10.3h4.3l-.3 1.4h-2.9l-.6 3h2.5l-.3 1.4h-2.5l-.7 3h2.9l-.3 1.5z" fill="#c80a26"/><g fill="#fff"><path d="m39.4 6.8-9.2 23.6h-3.6l.4-15.3h-.1l-6.2 15.3h-3.6l1.1-23.6h4.1l-1.3 15 6.3-15h3l-.3 15.4h.1l5.2-15.4z"/><path d="m35.3 30.4 11.1-23.6h3.2l.9 23.6h-3.9v-5.1h-5.2l-2.3 5.1zm11.3-8.2v-8.6h-.1l-3.8 8.6z"/><path d="m54.3 30.4 4.5-20.4h-4.5l.7-3.2h12.7l-.7 3.2h-4.4l-4.4 20.4z"/><path d="m79.5 23.7-.4 1.4a4 4 0 0 1 -.9 2.1 5.8 5.8 0 0 1 -1.7 1.8 6.6 6.6 0 0 1 -2.2 1.2 6.7 6.7 0 0 1 -2.4.4l-2.2-.2a4 4 0 0 1 -1.8-1 4.3 4.3 0 0 1 -1.2-1.7 6.1 6.1 0 0 1 0-2.7l2.9-12.9a4.7 4.7 0 0 1 .9-2.2 6.5 6.5 0 0 1 1.6-1.7 8.4 8.4 0 0 1 2.3-1.2 10.9 10.9 0 0 1 2.6-.4 5 5 0 0 1 4.1 1.6 5.1 5.1 0 0 1 .9 1.8 8.8 8.8 0 0 1 0 2.3l-.3 1.3h-3.9l.3-1.1a2.7 2.7 0 0 0 -.3-1.8 1.7 1.7 0 0 0 -1.6-.7 2.5 2.5 0 0 0 -2 .8 3.4 3.4 0 0 0 -.9 1.9l-2.7 12.1a2.3 2.3 0 0 0 .2 1.7c.2.5.8.7 1.6.7h.9l.9-.4a2.3 2.3 0 0 0 .7-.7 3.3 3.3 0 0 0 .5-1.2l.2-1.1z"/><path d="m82.6 30.4 5.2-23.6h3.8l-2.2 10.1h4.8l2.2-10.1h3.8l-5.1 23.6h-3.9l2.3-10.5h-4.7l-2.3 10.5z"/><path d="m123.6 30.4 5-23.6h11.5l-.7 3.2h-7.6l-1.5 7.1h6.6l-.7 3.2h-6.6l-2.1 10.1z"/><path d="m142.7 12.4a6 6 0 0 1 1.1-2.6 6.6 6.6 0 0 1 1.9-1.8 9.1 9.1 0 0 1 2.2-1.1l2.4-.3a8.5 8.5 0 0 1 2.3.3 5.4 5.4 0 0 1 1.8 1.1 4.2 4.2 0 0 1 1.1 1.8 4.5 4.5 0 0 1 .1 2.6l-2.7 12.4a6.8 6.8 0 0 1 -1.1 2.6 5.8 5.8 0 0 1 -1.8 1.7 7.4 7.4 0 0 1 -2.4 1.1 6.7 6.7 0 0 1 -2.4.4 5.7 5.7 0 0 1 -2.2-.4 4.2 4.2 0 0 1 -1.8-1.1 3.4 3.4 0 0 1 -1.1-1.7 4.5 4.5 0 0 1 -.1-2.6zm1.2 12.4c-.2.8-.1 1.5.4 1.8a2.4 2.4 0 0 0 1.7.6 3.3 3.3 0 0 0 1.9-.6 2.7 2.7 0 0 0 1.2-1.8l2.6-12.4c.2-.9.1-1.5-.4-1.9a2.9 2.9 0 0 0 -1.7-.5 4.1 4.1 0 0 0 -1.9.5 2.9 2.9 0 0 0 -1.2 1.9z"/><path d="m160.2 12.4a7.6 7.6 0 0 1 1.1-2.6 10.7 10.7 0 0 1 1.9-1.8 9.7 9.7 0 0 1 2.3-1.1 9.9 9.9 0 0 1 2.4-.3 7.8 7.8 0 0 1 2.2.3 5.9 5.9 0 0 1 1.9 1.1 4.2 4.2 0 0 1 1.1 1.8 5.7 5.7 0 0 1 0 2.6l-2.6 12.4a6.8 6.8 0 0 1 -1.1 2.6 7.5 7.5 0 0 1 -1.9 1.7 7 7 0 0 1 -2.3 1.1 6.7 6.7 0 0 1 -2.4.4 5.4 5.4 0 0 1 -2.2-.4 4 4 0 0 1 -1.9-1.1 3.4 3.4 0 0 1 -1.1-1.7 5.7 5.7 0 0 1 0-2.6zm1.2 12.4a2 2 0 0 0 .4 1.8 2.4 2.4 0 0 0 1.7.6 3.6 3.6 0 0 0 2-.6 2.3 2.3 0 0 0 1.1-1.8l2.7-12.4a2.2 2.2 0 0 0 -.4-1.9 3.1 3.1 0 0 0 -1.7-.5 4.6 4.6 0 0 0 -2 .5 2.5 2.5 0 0 0 -1.1 1.9z"/><path d="m176.3 30.4 4.3-20.4h-4.5l.7-3.2h12.7l-.6 3.2h-4.5l-4.3 20.4z"/><path d="m187.7 30.4 5-23.6h5.7a6.7 6.7 0 0 1 3 .5 3.5 3.5 0 0 1 1.8 1.3 3.6 3.6 0 0 1 .8 1.9 5.5 5.5 0 0 1 -.1 2.2l-.2.9a5 5 0 0 1 -.5 1.6 3.5 3.5 0 0 1 -.7 1.2 7.9 7.9 0 0 1 -2.3 1.6 3 3 0 0 1 1.6 1.7 4.7 4.7 0 0 1 0 2.9l-.3 1.4a7.7 7.7 0 0 1 -2.7 4.7c-1.4 1.2-3.3 1.7-5.8 1.7zm6.2-10.9-1.6 7.5h1.7a4.5 4.5 0 0 0 1.8-.3 3.6 3.6 0 0 0 1.2-.8 5.4 5.4 0 0 0 .7-1.3 7.5 7.5 0 0 0 .4-1.6 10.4 10.4 0 0 0 .2-1.5 1.3 1.3 0 0 0 -.2-1.1 1.3 1.3 0 0 0 -.9-.7 3.4 3.4 0 0 0 -1.6-.2zm2-9.5-1.4 6.5h1.8a3.5 3.5 0 0 0 2.7-.9 4.2 4.2 0 0 0 1.2-2.5 2.8 2.8 0 0 0 -.2-2.3c-.4-.6-1.2-.8-2.5-.8z"/><path d="m203.1 30.4 11-23.6h3.2l1 23.6h-3.9v-5.1h-5.2l-2.3 5.1zm11.3-8.3v-8.5h-.1l-3.7 8.5z"/><path d="m221.7 30.4 5-23.6h3.8l-4.3 20.2h7.6l-.7 3.4z"/><path d="m237.1 30.4 5-23.6h3.9l-4.3 20.2h7.6l-.7 3.4z"/></g></svg>